# xmcd
#
# Track frame offsets: 
#        150
#        10924
#        22102
#        32870
#        42407
#        52001
#        62294
#        71658
#        81774
#        92118
#        103524
#        114646
#        124979
#        136469
#        145784
#        156299
#        166832
#        176727
#        188496
#        200651
#        212313
#        225268
#
# Disc length: 3163 seconds
#
# Revision: 0
# Processed by: cddbd v1.5.2PL0 Copyright (c) Steve Scherf et al.
# Submitted via: ExactAudioCopy v1.3
#
DISCID=2e0c5916
DTITLE=Little Jimmy Dickens, 1956-62 - 4 Classic Albums Plus Singles 1
DTITLE=954-62_CD4
DYEAR=2015
DGENRE=Country
TTITLE0=Little Jimmy Dickens, 1956 - Say It Now
TTITLE1=Little Jimmy Dickens, 1956 - I'm Coming Over Tonight
TTITLE2=Little Jimmy Dickens, 1956 - Budduy's Boogie
TTITLE3=Little Jimmy Dickens, 1957 - I Never Had The Blues
TTITLE4=Little Jimmy Dickens, 1957 - Happy Heartaches
TTITLE5=Little Jimmy Dickens, 1957 - Makin' The Rounds
TTITLE6=Little Jimmy Dickens, 1957 - Let's Quit Before We Start
TTITLE7=Little Jimmy Dickens, 1957 - Family Reunion
TTITLE8=Little Jimmy Dickens, 1957 - Whatever You Were
TTITLE9=Little Jimmy Dickens, 1958 - (I Got) A Hole In My Pocket
TTITLE10=Little Jimmy Dickens, 1958 - Me And My Big Loud Mouth
TTITLE11=Little Jimmy Dickens, 1959 - When Your House Is Not A Home
TTITLE12=Little Jimmy Dickens, 1959 - The Honeymoon Is Over
TTITLE13=Little Jimmy Dickens, 1959 - Hannah
TTITLE14=Little Jimmy Dickens, 1959 - Country Ways And City Ideas
TTITLE15=Little Jimmy Dickens, 1959 - Hey Ma! (Hide The Daughter)
TTITLE16=Little Jimmy Dickens, 1959 - Hot Tears
TTITLE17=Little Jimmy Dickens, 1960 - We Loved It Up
TTITLE18=Little Jimmy Dickens, 1960 - I'm Just Blue Enough
TTITLE19=Little Jimmy Dickens, 1961 - Talking To The Wall
TTITLE20=Little Jimmy Dickens, 1961 - Farewell Party
TTITLE21=Little Jimmy Dickens, 1962 - Eight More Miles
EXTD=
EXTT0=
EXTT1=
EXTT2=
EXTT3=
EXTT4=
EXTT5=
EXTT6=
EXTT7=
EXTT8=
EXTT9=
EXTT10=
EXTT11=
EXTT12=
EXTT13=
EXTT14=
EXTT15=
EXTT16=
EXTT17=
EXTT18=
EXTT19=
EXTT20=
EXTT21=
PLAYORDER=
